<?xml version="1.0" encoding="utf-8"?>
<!-- Generator: Adobe Illustrator 24.0.0, SVG Export Plug-In . SVG Version: 6.00 Build 0)  -->
<svg version="1.1" id="Layer_1" xmlns="http://www.w3.org/2000/svg" xmlns:xlink="http://www.w3.org/1999/xlink" x="0px" y="0px"
	 viewBox="0 0 512 512" style="enable-background:new 0 0 512 512;" xml:space="preserve">
<style type="text/css">
	.st0{fill:#FFFFFF;}
	.st1{fill:#929291;}
	.st2{fill:#ED2024;}
	.st3{fill:#F79E1C;}
	.st4{fill:#21AE5C;}
	.st5{fill:#8150A0;}
	.st6{fill:#2E7FC2;}
</style>
<g id="XMLID_1_">
	<path id="XMLID_51_" class="st0" d="M52.2,270.6c-6.4,0.5-12.6,3.2-17.4,7.4c-7.6,6.5-11.5,17-10.1,26.9
		c1.4,12.6,11.6,23.5,24,25.9c9,1.9,18.7-0.5,25.8-6.4c6.8-5.6,11-14.2,11-23c0.3-10.1-4.9-20.1-13.3-25.7
		C66.4,271.8,59.2,270,52.2,270.6z"/>
	<path id="XMLID_50_" class="st0" d="M152.3,270.7c-12.5,1.1-23.7,10.9-26.4,23.2c-2.5,9.9,0.5,20.9,7.6,28.2
		c6.6,7,16.7,10.5,26.2,9.1c8.1-1.1,15.6-5.5,20.4-12.1c4-5.4,6.2-12.3,5.9-19c-0.1-9.2-4.9-18.2-12.3-23.6
		C167.6,271.9,159.8,269.9,152.3,270.7z"/>
	<path id="XMLID_49_" class="st0" d="M253.1,270.7c-6.7,0.6-13.1,3.6-17.9,8.2c-7,6.5-10.5,16.6-9.2,26c1,8.7,6.2,16.9,13.6,21.6
		c6.1,4,13.7,5.7,21,4.6c8.2-1.1,15.8-5.8,20.6-12.6c4.8-6.7,6.6-15.4,5-23.5c-1.6-8.5-7.1-16.2-14.6-20.5
		C266,271.3,259.4,270.1,253.1,270.7z"/>
	<path id="XMLID_48_" class="st0" d="M353.8,270.6c-11.4,0.9-21.8,9-25.6,19.7c-2.9,8-2.4,17.2,1.5,24.7c4.3,8.6,13,14.8,22.5,16.1
		c9.2,1.5,19-1.6,25.7-8.1c5.3-5.1,8.7-12.1,9.3-19.4c0.8-8.8-2.5-17.9-8.8-24.1C372.1,273,362.8,269.8,353.8,270.6z"/>
	<path id="XMLID_47_" class="st0" d="M454.6,270.6c-5.6,0.5-10.9,2.6-15.4,5.9c-7.6,5.6-12.3,14.9-12.2,24.3c-0.1,6.5,2,13,5.8,18.2
		c4.9,6.8,12.7,11.4,21.1,12.3c9.3,1.2,19-2.3,25.5-9.1c6.5-6.6,9.7-16.4,8.3-25.6c-1.1-8.4-6-16.2-13-20.9
		C468.8,271.8,461.6,270,454.6,270.6z"/>
	<g id="XMLID_13_">
		<g id="XMLID_37_">
			<path id="XMLID_38_" class="st1" d="M217.3,180.9c2-0.7,4.6-0.6,6.1,1.2c1.2,1.4,1.2,3.4,1.2,5.2c-0.1,15.9,0,31.7,0,47.6
				c0.2,3.8-4.3,6.3-7.5,4.5c-2.3-1.2-2.8-4-2.7-6.4c-3.1,3.6-7.2,6.5-12.1,6.9c-5,0.6-10.3-1.2-13.7-5c-4.7-4.9-6.1-12-5.9-18.6
				c0.2-5.7,1.8-11.6,6.1-15.6c4.4-4.2,11.1-5.1,16.9-3.7c3.5,0.8,6.2,3.2,8.7,5.6c0-5.3,0-10.7,0-16
				C214.4,184.4,215.1,181.8,217.3,180.9z M201.2,204.8c-4.2,1.1-6.6,5.3-7.3,9.3c-0.8,4.9-0.4,10.5,3,14.4c3.4,3.9,10.1,3.9,13.5,0
				c3.8-4.4,3.9-10.9,2.5-16.2C211.7,207.4,206.5,203.2,201.2,204.8z"/>
		</g>
		<g id="XMLID_33_">
			<path id="XMLID_34_" class="st1" d="M31.5,199.3c5.5-3.2,12.2-3.4,18.3-2.8c4.1,0.4,8.6,1.6,11,5.3c3,4.7,2.3,10.6,2.4,15.9
				c0.1,4.2-0.4,8.5,0.7,12.6c0.5,2.2,1.6,4.4,1,6.6c-1.1,2.2-3.7,3.6-6.2,2.8c-2.5-1.1-3.9-3.6-5.4-5.7c-3.7,2.7-7.9,5.3-12.6,5.7
				c-4.7,0.6-10-0.2-13.5-3.8c-3.2-3.3-4.2-8.5-2.4-12.8c1.6-3.7,5.2-6.1,9-7c6.2-1.4,12.5-2.5,18.6-4.3c-0.2-2.4-0.4-5.3-2.5-6.9
				c-3-1.6-6.7-1.4-9.9-0.6c-2.9,0.8-4.6,3.4-6.1,5.7c-1.6,3.5-7.6,2.1-8-1.5C25.6,204.8,28.3,201.2,31.5,199.3z M40.4,221.6
				c-2.3,0.6-4.9,1.9-5.4,4.4c-0.7,3.1,1.9,6.3,5,6.7c3.7,0.5,7.6-0.8,10.2-3.5c2.5-2.9,2.2-7,2.5-10.6
				C48.7,219.8,44.6,220.6,40.4,221.6z"/>
		</g>
		<g id="XMLID_29_">
			<path id="XMLID_30_" class="st1" d="M82.7,200.9c4.6-4.5,11.8-5.4,17.8-3.5c3.3,1,5.8,3.5,8,6.1c0-1.8-0.1-3.8,1.1-5.3
				c1.5-2,4.4-2.1,6.5-1.2c2.4,1.5,2.3,4.6,2.5,7c0.1,10.4,0,20.7,0,31.1c-0.1,5.5-0.7,11.6-4.7,15.8c-3.9,3.9-9.8,4.8-15.1,5
				c-5.6,0.2-11.6-0.7-16.3-3.8c-2.4-1.6-4.7-4.3-4.4-7.4c0.2-2.8,3.4-4.5,6-3.7c2.5,0.6,3.6,3.2,5.3,4.8c2.6,2.7,6.6,2.9,10.1,2.5
				c2.7-0.3,5.8-1.5,7-4.2c1.6-3.6,1.1-7.7,1.3-11.6c-2.8,3.6-7,6.5-11.7,6.6c-4.8,0.4-9.9-1-13.3-4.5c-4.4-4.3-6-10.7-6.1-16.7
				C76.6,211.6,78.2,205.1,82.7,200.9z M94.9,204.9c-4.4,1.2-6.7,5.7-7.1,9.9c-0.5,4.4-0.2,9.5,2.9,13c2.8,3.3,8,4,11.7,1.8
				c3.4-2,5.3-6,5.5-9.8c0.2-4.1-0.3-8.5-2.9-11.8C102.7,205,98.5,203.8,94.9,204.9z"/>
		</g>
		<g id="XMLID_25_">
			<path id="XMLID_26_" class="st1" d="M146.7,196.6c5.7-0.7,11.9,0,16.8,3.3c5.6,3.7,8.5,10.4,8.6,17c0.3,6-1.3,12.2-5.4,16.7
				c-4,4.4-10.1,6.4-16,6.3c-5.5,0.1-11.2-1.7-15.2-5.7c-4.1-3.9-6-9.6-6.1-15.2c-0.2-6,1.4-12.4,5.8-16.8
				C138.2,199.1,142.4,197.3,146.7,196.6z M147.4,204.9c-4,1.3-6.2,5.4-6.8,9.3c-0.8,4.8-0.4,10.2,2.7,14.1
				c3.3,4.3,10.3,4.6,14.1,0.8c2.9-2.8,3.8-7,3.8-10.8c0-3.8-0.6-7.9-3.3-10.8C155.4,204.6,151,203.7,147.4,204.9z"/>
		</g>
		<g id="XMLID_21_">
			<path id="XMLID_22_" class="st1" d="M243.5,199.4c5.9-3.5,13.1-3.5,19.7-2.7c4.6,0.5,9.6,3,11,7.8c2.3,7.9,0.3,16.2,1.4,24.2
				c0.4,2.5,1.6,4.8,1.6,7.3c-0.5,3.1-4.8,5-7.4,3.2c-1.8-1.3-3.1-3.2-4.3-5.1c-3.2,1.9-6.2,4.2-9.8,5.1c-5.2,1.3-11.4,1.1-15.7-2.7
				c-4.5-3.8-5.3-11.3-1.5-15.9c1.9-2.4,4.9-3.9,7.9-4.6c5.8-1.3,11.7-2.3,17.4-4c1.5-0.1,0.6-1.9,0.6-2.8c-0.4-2-1.3-4.3-3.5-4.9
				c-3.2-1-6.8-0.8-9.9,0.4c-3,1.3-4.1,4.7-6.3,6.8c-2.5,1.2-6.3,0-6.7-3C237.6,204.8,240.3,201.2,243.5,199.4z M252.1,221.7
				c-2.2,0.5-4.5,1.9-5,4.3c-0.7,3,1.7,6.1,4.6,6.6c3.9,0.7,8.2-0.7,10.8-3.7c2.3-2.9,2-6.8,2.1-10.2
				C260.5,219.9,256.2,220.6,252.1,221.7z"/>
		</g>
		<path id="XMLID_20_" class="st1" d="M334.5,196.7c6.9-1.3,14.6,0,19.9,4.9c2.1,2,4,4.8,3.8,7.8c-0.2,3.7-5.7,5.6-8,2.7
			c-2-2.4-3.6-5.2-6.5-6.6c-3.4-1.4-7.7-1-10.5,1.5c-2.9,2.7-4,6.8-4.1,10.7c-0.1,3.8,0.7,7.9,3.2,10.8c3.4,4,10.3,4.4,14.1,0.7
			c1.8-1.7,2.8-4.1,4.4-5.9c1.7-2.1,5.5-1.8,6.9,0.5c1.7,2.2,0.9,5.2-0.3,7.4c-3,5.3-9.1,7.9-14.9,8.5c-5.6,0.6-11.8-0.2-16.5-3.6
			c-3.9-2.9-6.6-7.4-7.4-12.2c-1.1-6.2-0.4-12.9,2.8-18.4C324.2,200.8,329.2,197.7,334.5,196.7z"/>
		<g id="XMLID_16_">
			<path id="XMLID_17_" class="st1" d="M387.6,196.6c5.3-0.6,10.9-0.2,15.6,2.5c5.1,2.8,8.5,8.1,9.5,13.7c1.1,6.5,0.3,13.6-3.6,19
				c-3.5,5-9.6,7.8-15.6,8c-5.2,0.3-10.6-0.7-14.9-3.9c-4.2-3-7-7.7-7.8-12.8c-1.2-6.6-0.2-14,4-19.4
				C377.9,199.8,382.6,197.4,387.6,196.6z M388.3,205c-3.6,1.2-5.8,4.9-6.5,8.5c-1,5-0.6,10.7,2.5,14.9c3.3,4.4,10.7,4.7,14.4,0.6
				c2.7-2.8,3.6-6.9,3.5-10.6c0-4-0.8-8.3-3.7-11.2C395.9,204.5,391.7,203.8,388.3,205z"/>
		</g>
		<path id="XMLID_15_" class="st1" d="M427.4,198.3c2-2.8,6.7-2.5,8.5,0.4c0.7,1.1,0.7,2.5,0.9,3.8c3.4-4.1,8.7-6.6,14.1-6
			c4.2,0.1,8.1,2.5,10.3,6.1c2.6-2.7,5.6-5.3,9.4-5.9c5-0.9,10.8,0.1,14.1,4.2c2.3,2.7,2.6,6.4,2.7,9.9c0,7.1,0,14.3,0,21.4
			c0,2,0,4.2-1.3,5.8c-2,2.7-6.8,2.7-8.8-0.1c-1.1-1.4-1.2-3.3-1.2-5c0-6.4,0.1-12.9,0-19.3c-0.1-2.7-0.1-5.9-2.5-7.7
			c-2.9-1.8-6.8-0.6-8.9,1.9c-1.9,2.2-2.1,5.1-2.3,7.9c-0.3,6.3,0,12.6-0.2,18.9c-0.1,1.9-0.9,3.8-2.6,4.8c-3.1,1.9-7.8,0.2-8.3-3.6
			c-0.8-8.3,0-16.8-0.4-25.1c-0.2-2.1-1-4.6-3.2-5.3c-3.4-0.9-8,0.2-9.2,4c-2,5.8-1.3,12.1-1.4,18.2c-0.2,3.2,0.5,6.5-0.5,9.5
			c-1.3,3.5-6.5,4.2-8.9,1.5c-1.2-1.3-1.6-3.1-1.6-4.8c0-10.1,0-20.2,0-30.3C426.3,201.5,426.3,199.7,427.4,198.3z"/>
		<path id="XMLID_14_" class="st1" d="M297.1,228.2c4.3-1.5,8.9,3,7.5,7.4c-0.8,4.6-7.3,5.8-10.3,2.6
			C291.4,235.1,292.8,229.2,297.1,228.2z"/>
	</g>
	<g id="XMLID_11_">
		<path id="XMLID_12_" class="st2" d="M52.2,270.6c7-0.6,14.1,1.2,19.9,5.2c8.4,5.6,13.6,15.6,13.3,25.7c0,8.8-4.2,17.4-11,23
			c-7,5.9-16.8,8.3-25.8,6.4c-12.4-2.4-22.5-13.3-24-25.9c-1.4-9.9,2.5-20.4,10.1-26.9C39.7,273.8,45.8,271.1,52.2,270.6z"/>
	</g>
	<g id="XMLID_9_">
		<path id="XMLID_10_" class="st3" d="M152.3,270.7c7.5-0.8,15.3,1.2,21.4,5.8c7.5,5.4,12.2,14.4,12.3,23.6c0.3,6.8-1.9,13.6-5.9,19
			c-4.8,6.6-12.3,11-20.4,12.1c-9.5,1.4-19.6-2.1-26.2-9.1c-7.1-7.3-10.1-18.3-7.6-28.2C128.6,281.6,139.8,271.8,152.3,270.7z"/>
	</g>
	<g id="XMLID_7_">
		<path id="XMLID_8_" class="st4" d="M253.1,270.7c6.4-0.6,13,0.7,18.5,4c7.5,4.3,13,12,14.6,20.5c1.6,8.1-0.2,16.8-5,23.5
			c-4.7,6.8-12.4,11.5-20.6,12.6c-7.2,1.1-14.9-0.6-21-4.6c-7.4-4.8-12.5-12.9-13.6-21.6c-1.3-9.5,2.2-19.5,9.2-26
			C240,274.2,246.4,271.3,253.1,270.7z"/>
	</g>
	<g id="XMLID_5_">
		<path id="XMLID_6_" class="st5" d="M353.8,270.6c9-0.9,18.3,2.3,24.6,8.8c6.3,6.2,9.6,15.3,8.8,24.1c-0.6,7.3-3.9,14.4-9.3,19.4
			c-6.7,6.5-16.5,9.6-25.7,8.1c-9.5-1.3-18.2-7.5-22.5-16.1c-3.9-7.5-4.4-16.7-1.5-24.7C332.1,279.6,342.4,271.6,353.8,270.6z"/>
	</g>
	<g id="XMLID_3_">
		<path id="XMLID_4_" class="st6" d="M454.6,270.6c7-0.6,14.2,1.1,20,5.1c7,4.7,11.9,12.5,13,20.9c1.4,9.2-1.7,18.9-8.3,25.6
			c-6.5,6.8-16.2,10.3-25.5,9.1c-8.3-0.9-16.1-5.5-21.1-12.3c-3.8-5.2-5.9-11.7-5.8-18.2c-0.1-9.4,4.7-18.7,12.2-24.3
			C443.7,273.2,449.1,271.1,454.6,270.6z"/>
	</g>
</g>
</svg>
